<svg id="Layer_1" data-name="Layer 1" xmlns="http://www.w3.org/2000/svg" viewBox="0 0 156.8 35.01"><defs><style>.cls-1{fill:#fff;}</style></defs><title>lexisNexisLogo</title><polygon class="cls-1" points="48.99 8.98 46.85 8.98 46.85 25.75 57.49 25.75 57.49 23.67 48.99 23.67 48.99 8.98"/><polygon class="cls-1" points="138.84 15 137.42 13.77 133.34 18.46 129.3 13.81 129.26 13.77 127.84 15 132.09 19.9 127.88 24.75 127.84 24.79 129.26 26.02 133.34 21.33 137.39 25.98 137.42 26.02 138.84 24.79 134.59 19.9 138.81 15.04 138.84 15"/><polygon class="cls-1" points="110.97 21.04 99.53 8.98 99.11 8.98 99.11 25.75 101.24 25.75 101.24 13.7 112.68 25.75 113.1 25.75 113.1 8.98 110.97 8.98 110.97 21.04"/><rect class="cls-1" x="140.98" y="14.04" width="2.02" height="11.72"/><rect class="cls-1" x="140.88" y="8.99" width="2.21" height="1.89"/><path class="cls-1" d="M126.88,18.31A5.92,5.92,0,0,0,121,24.36a5.94,5.94,0,0,0,6,6.05,6.54,6.54,0,0,0,4.71-1.9h0l-1.44-1.25A4.86,4.86,0,0,1,127,28.51a3.91,3.91,0,0,1-3.94-3.66h9.52C132.55,20.68,130.16,18.31,126.88,18.31Zm-3.71,4.78a3.67,3.67,0,0,1,3.59-2.93,3.35,3.35,0,0,1,3.56,2.93Z" transform="translate(-5.39 -4.46)"/><path class="cls-1" d="M155.8,23.54l-1-.35c-1.41-.5-1.78-1.06-1.78-1.78s.81-1.29,1.73-1.29a2.55,2.55,0,0,1,2,.91l1.36-1.19a4.17,4.17,0,0,0-3.34-1.53c-2.21,0-3.8,1.36-3.8,3.12,0,1.4.76,2.69,2.9,3.47l1,.35c1.44.49,2.07,1,2.07,1.87s-1,1.48-2.17,1.48a3.57,3.57,0,0,1-2.87-1.48l-1.44,1.26a5.46,5.46,0,0,0,4.27,2c2.65,0,4.31-1.48,4.31-3.36S157.87,24.26,155.8,23.54Z" transform="translate(-5.39 -4.46)"/><polygon class="cls-1" points="81.56 15 80.13 13.77 76.05 18.46 72.01 13.81 71.97 13.77 70.55 15 74.81 19.9 70.59 24.75 70.55 24.79 71.97 26.02 76.05 21.33 80.1 25.98 80.13 26.02 81.56 24.79 77.3 19.9 81.52 15.04 81.56 15"/><rect class="cls-1" x="83.69" y="14.04" width="2.02" height="11.72"/><rect class="cls-1" x="83.59" y="8.99" width="2.21" height="1.89"/><path class="cls-1" d="M69.59,18.31a5.92,5.92,0,0,0-5.89,6.05,5.94,5.94,0,0,0,6,6.05,6.54,6.54,0,0,0,4.71-1.9h0L73,27.25a4.88,4.88,0,0,1-3.26,1.26,3.91,3.91,0,0,1-3.94-3.66H75.3C75.26,20.68,72.87,18.31,69.59,18.31Zm-3.71,4.78a3.68,3.68,0,0,1,3.59-2.93A3.35,3.35,0,0,1,73,23.09Z" transform="translate(-5.39 -4.46)"/><path class="cls-1" d="M98.51,23.54l-1-.35c-1.41-.5-1.78-1.06-1.78-1.78s.81-1.29,1.73-1.29a2.55,2.55,0,0,1,2,.91l1.36-1.19a4.17,4.17,0,0,0-3.34-1.53c-2.21,0-3.8,1.36-3.8,3.12,0,1.4.76,2.69,2.9,3.47l1,.35c1.44.49,2.07,1,2.07,1.87s-1,1.48-2.17,1.48a3.57,3.57,0,0,1-2.87-1.48L93.1,28.38a5.46,5.46,0,0,0,4.26,2c2.66,0,4.32-1.48,4.32-3.36S100.58,24.26,98.51,23.54Z" transform="translate(-5.39 -4.46)"/><path class="cls-1" d="M160.64,15.33a1.56,1.56,0,0,0-1.56,1.57,1.56,1.56,0,1,0,1.56-1.57Zm0,2.88a1.29,1.29,0,0,1-1.3-1.31,1.3,1.3,0,1,1,2.59,0A1.29,1.29,0,0,1,160.64,18.21Z" transform="translate(-5.39 -4.46)"/><path class="cls-1" d="M161.29,16.5c0-.32-.23-.51-.63-.51H160v1.76h.29V17h.31l.4.73h.31l-.42-.77A.45.45,0,0,0,161.29,16.5Zm-.64.27h-.32v-.51h.31c.25,0,.37.07.37.24S160.9,16.77,160.65,16.77Z" transform="translate(-5.39 -4.46)"/><path class="cls-1" d="M42.11,10.31a1.57,1.57,0,0,0-1.56,1.57,1.56,1.56,0,1,0,1.56-1.57Zm0,2.89a1.32,1.32,0,1,1,1.29-1.32A1.3,1.3,0,0,1,42.11,13.2Z" transform="translate(-5.39 -4.46)"/><path class="cls-1" d="M42.76,11.48c0-.32-.23-.51-.62-.51h-.63v1.76h.29V12h.31l.4.73h.32L42.41,12A.44.44,0,0,0,42.76,11.48Zm-.64.27h-.31v-.51h.31c.25,0,.36.08.36.24S42.37,11.75,42.12,11.75Z" transform="translate(-5.39 -4.46)"/><path class="cls-1" d="M12,20.14a18.57,18.57,0,0,1,8.52-8.42c.42-.2.84-.39,1.28-.56,0,0,0-.07,0-.06C8.92,13.26,3.42,29.2,12,36c0,0,.08,0,0-.05C10.79,34.27,7.86,28.39,12,20.14Z" transform="translate(-5.39 -4.46)"/><path class="cls-1" d="M14.91,30.77a19.93,19.93,0,0,1,0-6.31,19.46,19.46,0,0,1,5.54-10.74,18.05,18.05,0,0,1,1.69-1.46,0,0,0,0,0,0-.06c-6.7,3-10.57,10.48-10.08,17.29.28,3.11,1.5,8.85,7.47,10a0,0,0,0,0,0-.06C17.07,37.72,15.34,33.77,14.91,30.77Z" transform="translate(-5.39 -4.46)"/><path class="cls-1" d="M6.62,15.4c3-4.23,9.16-7.09,15.17-6.35,0,0,.05-.05,0-.06-4.58-1.35-9.36-.45-12.27,1.91a11.76,11.76,0,0,0-3,4.47S6.6,15.44,6.62,15.4Z" transform="translate(-5.39 -4.46)"/><path class="cls-1" d="M40.49,20.69A17.67,17.67,0,0,0,11.63,8.5a0,0,0,0,0,0,.06C14,7.25,17.13,7.28,19,7.5a15.87,15.87,0,0,1,5.62,1.74,13.21,13.21,0,0,1,1.31.77A18.92,18.92,0,0,1,30.86,8.6h0a.27.27,0,0,1,.29.16.25.25,0,0,1-.19.33,18,18,0,0,0-2.66.78,0,0,0,0,0,0,.07,18.44,18.44,0,0,1,3.64.39h0a.24.24,0,0,1,.21.21.26.26,0,0,1-.29.28,17.48,17.48,0,0,0-3.15-.19s0,.06,0,.08c.49.15,1,.32,1.45.51a18.37,18.37,0,0,1,2.58,1.31h0a.24.24,0,0,1,.12.23.25.25,0,0,1-.37.2A17.16,17.16,0,0,0,30,11.82c-.37-.13-.74-.25-1.12-.35a0,0,0,0,0,0,.06,16,16,0,0,1,1.77,1.29,16.38,16.38,0,0,1,2,2h0a.25.25,0,0,1,0,.26.25.25,0,0,1-.42.07,16.69,16.69,0,0,0-2-1.9,15.67,15.67,0,0,0-1.36-.94,0,0,0,0,0-.05.06,5.22,5.22,0,0,1,.39.43,15.64,15.64,0,0,1,1.72,2.34,16.9,16.9,0,0,1,1.25,2.61h0a.23.23,0,0,1,0,.25.24.24,0,0,1-.41-.07,15.4,15.4,0,0,0-1.28-2.49,15.08,15.08,0,0,0-3.77-4.08c-.22-.16-.53-.38-.66-.46-14.58,8.12-9.52,29.47,1,28.36A17.66,17.66,0,0,0,40.49,20.69Z" transform="translate(-5.39 -4.46)"/><path class="cls-1" d="M8.84,18a18,18,0,0,1,12.81-8,0,0,0,0,0,0-.07,15.28,15.28,0,0,0-4.65.34,16.12,16.12,0,0,0-5.13,2.15,15.83,15.83,0,0,0-4.08,3.79l0,0a12.11,12.11,0,0,0-2,10.15c.09.4.37,1.23.55,1.76,0,0,.08,0,.07,0A15.4,15.4,0,0,1,8.84,18Z" transform="translate(-5.39 -4.46)"/></svg>