<svg id="Layer_1" data-name="Layer 1" xmlns="http://www.w3.org/2000/svg" viewBox="0 0 780 430"><defs><style>.cls-1{fill:#cc1f36;}.cls-2{fill:#fff;}.cls-3{fill:#666766;fill-opacity:0.7;}</style></defs><title>lexisAdvanceVideo</title><rect class="cls-1" width="780" height="430" rx="20"/><path class="cls-2" d="M742.31,1029v7.74H703.69V968.66h9.17V1029Zm37-21.56a16,16,0,0,0-.86-5.37,11.19,11.19,0,0,0-2.42-4.23,10.18,10.18,0,0,0-3.85-2.75,12.68,12.68,0,0,0-5.17-1q-6.09,0-9.65,3.56t-4.37,9.79Zm6.84,22.56a16.91,16.91,0,0,1-3.75,3.32,23.85,23.85,0,0,1-4.71,2.28,27.21,27.21,0,0,1-5.13,1.33,29.6,29.6,0,0,1-5.27.48,25.09,25.09,0,0,1-9.21-1.66,20.91,20.91,0,0,1-7.27-4.94,23.11,23.11,0,0,1-4.75-8.08,32.74,32.74,0,0,1-1.71-11,28.46,28.46,0,0,1,1.52-9.4,22.1,22.1,0,0,1,4.46-7.56,20.17,20.17,0,0,1,7.08-5,22.91,22.91,0,0,1,9.41-1.85,21.22,21.22,0,0,1,8,1.47,17.32,17.32,0,0,1,6.36,4.18,18.54,18.54,0,0,1,4.23,6.74,25.57,25.57,0,0,1,1.52,9.12,5.44,5.44,0,0,1-.43,2.66,1.75,1.75,0,0,1-1.61.67H752.67a28.89,28.89,0,0,0,1.23,7.93,16.46,16.46,0,0,0,3.14,5.65,12.89,12.89,0,0,0,4.75,3.38,16.74,16.74,0,0,0,6.17,1.09,18.62,18.62,0,0,0,5.47-.71,27.87,27.87,0,0,0,4-1.62,31.53,31.53,0,0,0,2.75-1.57,3.79,3.79,0,0,1,2-.76,1.85,1.85,0,0,1,1.61.81Zm50,6.74H828a2.48,2.48,0,0,1-1.66-.52,5.79,5.79,0,0,1-1-1.23l-12.11-18.86c-.13.44-.27.88-.43,1.33a4.06,4.06,0,0,1-.57,1.14L801.07,1035a10.32,10.32,0,0,1-1.05,1.23,2,2,0,0,1-1.47.52H791l16.86-24.7-16.2-23.41h8.13a2.74,2.74,0,0,1,1.52.33,3.18,3.18,0,0,1,.85.95L814,1007.94a9.7,9.7,0,0,1,1.19-2.66l10.35-15.2a4.59,4.59,0,0,1,.9-1.05,1.94,1.94,0,0,1,1.24-.42h7.79l-16.2,23Zm16.73-48.11v48.11h-8.46V988.61Zm1.8-15.11a5.33,5.33,0,0,1-.52,2.33,6.41,6.41,0,0,1-1.33,1.9,6,6,0,0,1-1.95,1.28,5.87,5.87,0,0,1-4.65,0,6.13,6.13,0,0,1-1.85-1.28,7.09,7.09,0,0,1-1.29-1.9,6.07,6.07,0,0,1,1.29-6.6,5.63,5.63,0,0,1,1.85-1.33,5.87,5.87,0,0,1,4.65,0,5.55,5.55,0,0,1,1.95,1.33,5.42,5.42,0,0,1,1.33,1.94A5.33,5.33,0,0,1,854.65,973.5Zm40.12,23a1.87,1.87,0,0,1-1.76,1,3.31,3.31,0,0,1-1.62-.52c-.6-.35-1.34-.73-2.23-1.14a17.09,17.09,0,0,0-3.09-1.19,14.2,14.2,0,0,0-4.27-.57,12.12,12.12,0,0,0-3.85.57,9,9,0,0,0-2.94,1.48,6.83,6.83,0,0,0-1.86,2.23,6,6,0,0,0-.61,2.71,4.63,4.63,0,0,0,1,3.08,9.51,9.51,0,0,0,2.85,2.14,26.69,26.69,0,0,0,4,1.62q2.24.66,4.56,1.47c1.59.5,3.12,1.08,4.61,1.71a16.45,16.45,0,0,1,4,2.37,10.53,10.53,0,0,1,2.8,3.52,10.33,10.33,0,0,1,1.09,4.94,15.92,15.92,0,0,1-1.18,6.17,13.9,13.9,0,0,1-3.52,4.9,17.32,17.32,0,0,1-5.7,3.23,23.45,23.45,0,0,1-7.79,1.18,24.56,24.56,0,0,1-9.12-1.61,23.54,23.54,0,0,1-6.93-4.23l2-3.23a3.05,3.05,0,0,1,.9-1,2.47,2.47,0,0,1,1.33-.33,3.2,3.2,0,0,1,1.81.66c.63.45,1.39.94,2.28,1.48a19.67,19.67,0,0,0,3.32,1.47,15.31,15.31,0,0,0,4.85.66,13.69,13.69,0,0,0,4.32-.61,9.41,9.41,0,0,0,3.09-1.76,6.67,6.67,0,0,0,1.8-2.52,7.42,7.42,0,0,0,.62-3,4.88,4.88,0,0,0-1.09-3.28,8.43,8.43,0,0,0-2.8-2.23,20.62,20.62,0,0,0-4-1.61l-4.61-1.48q-2.32-.75-4.61-1.71a16.82,16.82,0,0,1-4-2.47,11.41,11.41,0,0,1-2.85-3.61,12.2,12.2,0,0,1-1-5.27,12.62,12.62,0,0,1,1.14-5.27,12.81,12.81,0,0,1,3.32-4.47,16.16,16.16,0,0,1,5.37-3.08,21.5,21.5,0,0,1,7.27-1.14,22.32,22.32,0,0,1,8.5,1.52,19.88,19.88,0,0,1,6.56,4.08Zm72.37,14.91-10.69-27.69c-.32-.82-.65-1.77-1-2.85s-.68-2.28-1-3.51a50.63,50.63,0,0,1-2,6.41l-10.69,27.64Zm19.19,25.27H979.2a3.1,3.1,0,0,1-2-.61,3.89,3.89,0,0,1-1.13-1.57l-6.37-16.44H939.16l-6.37,16.44a3.3,3.3,0,0,1-1.09,1.52,3.05,3.05,0,0,1-2,.66h-7.12l27.22-68.06h9.31Zm37.28-36.67a13.35,13.35,0,0,0-5.13-4.41,14.34,14.34,0,0,0-6.17-1.29q-6.7,0-10.31,4.8t-3.61,13.68a35,35,0,0,0,.81,8.08,16,16,0,0,0,2.37,5.51,9.42,9.42,0,0,0,3.85,3.13,12.73,12.73,0,0,0,5.18,1,13.65,13.65,0,0,0,7.27-1.9,20.77,20.77,0,0,0,5.74-5.37Zm8.46-33.29v70h-5a2.16,2.16,0,0,1-2.28-1.75l-.76-5.85a26.07,26.07,0,0,1-7,6,17.84,17.84,0,0,1-9.12,2.28,17.52,17.52,0,0,1-7.5-1.57,15.76,15.76,0,0,1-5.75-4.7,22.5,22.5,0,0,1-3.66-7.7,39.8,39.8,0,0,1-1.28-10.59,33,33,0,0,1,1.43-9.88,24.45,24.45,0,0,1,4.08-8,18.61,18.61,0,0,1,6.51-5.27,19.26,19.26,0,0,1,8.74-2,17.23,17.23,0,0,1,7.55,1.52,17.9,17.9,0,0,1,5.65,4.13V966.76Zm54.58,21.85L1067,1036.72h-7.6l-19.62-48.11h6.89a2.7,2.7,0,0,1,1.71.52,2.66,2.66,0,0,1,.9,1.23l12.21,31q.57,1.77,1,3.42t.81,3.33q.38-1.66.81-3.33c.28-1.1.63-2.24,1-3.42l12.35-31a2.67,2.67,0,0,1,1-1.23,2.47,2.47,0,0,1,1.57-.52Zm32.81,26.45a69.79,69.79,0,0,0-10,1,28.45,28.45,0,0,0-6.7,1.9,9.51,9.51,0,0,0-3.75,2.81,6.1,6.1,0,0,0-1.14,3.61,8,8,0,0,0,.62,3.27,6.35,6.35,0,0,0,1.66,2.28,7.71,7.71,0,0,0,2.52,1.29,12.6,12.6,0,0,0,3.13.38,18.54,18.54,0,0,0,4.09-.43,15.8,15.8,0,0,0,3.46-1.33,18.35,18.35,0,0,0,3.14-2,27.35,27.35,0,0,0,2.94-2.71Zm-27.31-19.66a27.49,27.49,0,0,1,8.6-5.75,26.49,26.49,0,0,1,10.21-1.9,18.16,18.16,0,0,1,7.17,1.33,14.75,14.75,0,0,1,5.28,3.71,15.79,15.79,0,0,1,3.23,5.74,24.2,24.2,0,0,1,1.09,7.41v30.78H1124a3.78,3.78,0,0,1-1.9-.38,2.85,2.85,0,0,1-1-1.61l-1-4.56c-1.26,1.17-2.5,2.21-3.7,3.13a23,23,0,0,1-3.8,2.28,20.81,20.81,0,0,1-4.28,1.38,21.85,21.85,0,0,1-5,.52,17.77,17.77,0,0,1-5.27-.76,12.75,12.75,0,0,1-4.32-2.37,11.64,11.64,0,0,1-2.9-3.94,14.29,14.29,0,0,1-1-5.7,10.55,10.55,0,0,1,1.56-5.47,13.67,13.67,0,0,1,5.09-4.7,32.77,32.77,0,0,1,9.16-3.32,67.94,67.94,0,0,1,13.87-1.52v-3.76c0-3.73-.8-6.55-2.42-8.45s-4-2.9-7.08-2.9a15,15,0,0,0-5.27.81,18.31,18.31,0,0,0-3.66,1.76c-1,.63-1.9,1.22-2.66,1.75a3.75,3.75,0,0,1-2.18.76,2.54,2.54,0,0,1-1.47-.42,4.56,4.56,0,0,1-1-1.14Zm56.44.19a28.36,28.36,0,0,1,3.32-3.18,21.91,21.91,0,0,1,3.71-2.43,17.84,17.84,0,0,1,4.18-1.56,19.37,19.37,0,0,1,4.8-.57,16.87,16.87,0,0,1,6.93,1.33,12.88,12.88,0,0,1,5,3.7,15.79,15.79,0,0,1,3.08,5.75,25,25,0,0,1,1,7.46v30.63h-8.5v-30.63c0-3.65-.84-6.46-2.52-8.46s-4.17-3-7.55-3a14.24,14.24,0,0,0-7,1.81,23.09,23.09,0,0,0-6,4.89v35.43h-8.5V988.61h5.08a2.08,2.08,0,0,1,2.23,1.75Zm78.48,1.57a3.93,3.93,0,0,1-.76.8,1.69,1.69,0,0,1-1,.29,2.88,2.88,0,0,1-1.57-.57,21.73,21.73,0,0,0-2.14-1.33,14.69,14.69,0,0,0-3.09-1.28,13.66,13.66,0,0,0-4.46-.62,14.53,14.53,0,0,0-6.27,1.28,12,12,0,0,0-4.56,3.61,17,17,0,0,0-2.76,5.75,29.27,29.27,0,0,0-.9,7.55,27.68,27.68,0,0,0,1,7.79,17.06,17.06,0,0,0,2.8,5.7,12.84,12.84,0,0,0,4.42,3.52,14,14,0,0,0,5.84,1.18,13.42,13.42,0,0,0,8.36-2.37,25.81,25.81,0,0,0,2.18-1.62,2.83,2.83,0,0,1,1.76-.76,1.86,1.86,0,0,1,1.62.81l2.37,3.09a16.69,16.69,0,0,1-3.56,3.32,22.39,22.39,0,0,1-4.32,2.33,23.62,23.62,0,0,1-4.8,1.33,30.1,30.1,0,0,1-5.13.43,21.35,21.35,0,0,1-8.41-1.66,19.26,19.26,0,0,1-6.69-4.8,22.74,22.74,0,0,1-4.47-7.79,31.55,31.55,0,0,1-1.61-10.5,32.2,32.2,0,0,1,1.47-9.93,22.61,22.61,0,0,1,4.37-7.83,19.92,19.92,0,0,1,7.07-5.18,23.86,23.86,0,0,1,9.69-1.85,22.3,22.3,0,0,1,8.93,1.66,21,21,0,0,1,6.89,4.61Zm43.25,10.26a16,16,0,0,0-.86-5.37,11.32,11.32,0,0,0-2.42-4.23,10.18,10.18,0,0,0-3.85-2.75,12.68,12.68,0,0,0-5.17-1q-6.09,0-9.65,3.56t-4.37,9.79Zm6.84,22.56a16.91,16.91,0,0,1-3.75,3.32,23.85,23.85,0,0,1-4.71,2.28,27.21,27.21,0,0,1-5.13,1.33,29.6,29.6,0,0,1-5.27.48,25.09,25.09,0,0,1-9.21-1.66,20.91,20.91,0,0,1-7.27-4.94,23.11,23.11,0,0,1-4.75-8.08,32.74,32.74,0,0,1-1.71-11,28.21,28.21,0,0,1,1.52-9.4,22.1,22.1,0,0,1,4.46-7.56,20.08,20.08,0,0,1,7.08-5,22.91,22.91,0,0,1,9.41-1.85,21.22,21.22,0,0,1,8,1.47,17.32,17.32,0,0,1,6.36,4.18,18.54,18.54,0,0,1,4.23,6.74,25.57,25.57,0,0,1,1.52,9.12,5.44,5.44,0,0,1-.43,2.66,1.75,1.75,0,0,1-1.61.67h-32.16a28.51,28.51,0,0,0,1.23,7.93,16.46,16.46,0,0,0,3.14,5.65,12.89,12.89,0,0,0,4.75,3.38,16.74,16.74,0,0,0,6.17,1.09,18.62,18.62,0,0,0,5.47-.71,27.87,27.87,0,0,0,4-1.62,31.53,31.53,0,0,0,2.75-1.57,3.79,3.79,0,0,1,2-.76,1.86,1.86,0,0,1,1.61.81Z" transform="translate(-610 -784.83)"/><path class="cls-2" d="M1297,981.54a3.54,3.54,0,0,0,2.34-.6,2.27,2.27,0,0,0,.68-1.76,2.86,2.86,0,0,0-.15-1,1.45,1.45,0,0,0-.47-.69,2,2,0,0,0-.85-.41,5.41,5.41,0,0,0-1.31-.13h-2v4.56Zm.24-6.36a6.3,6.3,0,0,1,3.83.94,3.22,3.22,0,0,1,1.24,2.76,3.71,3.71,0,0,1-.79,2.4,4.11,4.11,0,0,1-2.39,1.35,1.84,1.84,0,0,1,.44.39,3.07,3.07,0,0,1,.36.53l3.42,5h-2.24a.78.78,0,0,1-.72-.38l-3-4.53a.94.94,0,0,0-.33-.3,1.19,1.19,0,0,0-.57-.1h-1.18v5.31H1293V975.18Zm.18,16.32a9.38,9.38,0,0,0,4.82-1.29,9.55,9.55,0,0,0,3.4-3.44,9.77,9.77,0,0,0,.95-2.31,9.82,9.82,0,0,0-2.43-9.4,9.39,9.39,0,0,0-9.27-2.49,9.27,9.27,0,0,0-4.17,2.47,9.6,9.6,0,0,0-2.4,4.28,10,10,0,0,0-.33,2.58,9.82,9.82,0,0,0,.33,2.56,10.15,10.15,0,0,0,.93,2.31,9.62,9.62,0,0,0,1.47,1.94,10.12,10.12,0,0,0,1.9,1.5,9.74,9.74,0,0,0,2.27,1A9.59,9.59,0,0,0,1297.44,991.5Zm0-20.58a10.91,10.91,0,0,1,5.54,1.5,11.19,11.19,0,0,1,2.22,1.72,10.27,10.27,0,0,1,1.71,2.22,11,11,0,0,1-1.71,13.28,11.52,11.52,0,0,1-2.22,1.71,10.89,10.89,0,0,1-11.06,0,10.89,10.89,0,0,1-3.93-3.93,10.93,10.93,0,0,1,0-11.06,10.94,10.94,0,0,1,1.71-2.22,11.19,11.19,0,0,1,2.22-1.72,10.77,10.77,0,0,1,5.52-1.5Z" transform="translate(-610 -784.83)"/><circle class="cls-3" cx="389.58" cy="215.39" r="84.22"/><path class="cls-1" d="M1046.47,1000.64l-69.7,40.24V960.4Z" transform="translate(-610 -784.83)"/></svg>