<svg id="Layer_1" data-name="Layer 1" xmlns="http://www.w3.org/2000/svg" viewBox="0 0 440 266"><defs><style>.cls-1{fill:#cc1f36;}.cls-2{fill:#fff;}.cls-3{fill:#666766;fill-opacity:0.7;}</style></defs><title>lexisAnswersVideo</title><rect class="cls-1" width="440" height="266" rx="10"/><path class="cls-2" d="M895.4,1012.43V1014H881.48V988.53h1.86v23.9Zm14.29-9.19a7.67,7.67,0,0,0-.41-2.58,5.48,5.48,0,0,0-1.14-1.94,4.91,4.91,0,0,0-1.76-1.21,5.58,5.58,0,0,0-2.23-.43,6.7,6.7,0,0,0-2.49.43,5.58,5.58,0,0,0-1.91,1.24,6.33,6.33,0,0,0-1.27,2,8.84,8.84,0,0,0-.65,2.54Zm-12,1.09v.35a11.86,11.86,0,0,0,.47,3.54,7.32,7.32,0,0,0,1.33,2.58,5.4,5.4,0,0,0,2.09,1.54,6.85,6.85,0,0,0,2.73.53,8.5,8.5,0,0,0,2.34-.29,9.28,9.28,0,0,0,2.74-1.33,1.18,1.18,0,0,1,.57-.31.43.43,0,0,1,.37.18l.46.58a4.78,4.78,0,0,1-1.15,1,7.33,7.33,0,0,1-1.58.81,12.42,12.42,0,0,1-1.87.53,10.42,10.42,0,0,1-2,.19,8.62,8.62,0,0,1-3.35-.63,7.09,7.09,0,0,1-2.59-1.87,8.59,8.59,0,0,1-1.68-3,13.27,13.27,0,0,1-.57-4.06,11.15,11.15,0,0,1,.54-3.55,8.28,8.28,0,0,1,1.58-2.81,7.25,7.25,0,0,1,2.54-1.85,8.32,8.32,0,0,1,3.42-.67,7.63,7.63,0,0,1,2.81.52,6.43,6.43,0,0,1,2.25,1.53,7.06,7.06,0,0,1,1.49,2.45,9.37,9.37,0,0,1,.56,3.35,1,1,0,0,1-.11.54.4.4,0,0,1-.36.14Zm31.09,9.67h-1.64a.53.53,0,0,1-.39-.14,2,2,0,0,1-.24-.31l-5.43-7.94a1.94,1.94,0,0,1-.27.63l-5.19,7.31a2.61,2.61,0,0,1-.27.31.44.44,0,0,1-.34.14h-1.55l6.52-9.16-6.27-8.75h1.64a.57.57,0,0,1,.38.11,1.07,1.07,0,0,1,.22.25l5.25,7.58a2.33,2.33,0,0,1,.11-.31l.18-.32,4.91-6.93a1.28,1.28,0,0,1,.24-.27.48.48,0,0,1,.32-.11h1.57l-6.25,8.64Zm5.64-17.91V1014h-1.71V996.09Zm.74-6.17a1.43,1.43,0,0,1-.14.61,1.82,1.82,0,0,1-.34.48,1.78,1.78,0,0,1-.51.35,1.58,1.58,0,0,1-.61.12,1.54,1.54,0,0,1-.61-.12,1.65,1.65,0,0,1-.51-.35,1.82,1.82,0,0,1-.34-.48,1.59,1.59,0,0,1-.13-.61,1.64,1.64,0,0,1,.13-.62,1.87,1.87,0,0,1,.34-.52,1.63,1.63,0,0,1,.51-.34,1.55,1.55,0,0,1,.61-.13,1.59,1.59,0,0,1,.61.13,1.75,1.75,0,0,1,.51.34,1.87,1.87,0,0,1,.34.52A1.48,1.48,0,0,1,935.21,989.92Zm15.22,8.38a.47.47,0,0,1-.42.26,1,1,0,0,1-.5-.22,5.63,5.63,0,0,0-.83-.5,5.78,5.78,0,0,0-1.26-.51,6.5,6.5,0,0,0-1.84-.23,5.11,5.11,0,0,0-1.78.29,4.48,4.48,0,0,0-1.37.73,3.36,3.36,0,0,0-.86,1.1,2.93,2.93,0,0,0-.31,1.3,2.21,2.21,0,0,0,.44,1.4,3.87,3.87,0,0,0,1.11,1,8.75,8.75,0,0,0,1.6.68l1.82.58c.63.19,1.24.4,1.84.64a6.14,6.14,0,0,1,1.58.87,4.11,4.11,0,0,1,1.14,1.28,3.7,3.7,0,0,1,.43,1.83,5.61,5.61,0,0,1-.42,2.18,4.82,4.82,0,0,1-1.22,1.75,5.84,5.84,0,0,1-2,1.17,7.93,7.93,0,0,1-2.68.43,8.07,8.07,0,0,1-3.26-.6,9.11,9.11,0,0,1-2.45-1.58l.4-.61a.7.7,0,0,1,.19-.22.67.67,0,0,1,.33-.07,1,1,0,0,1,.56.29,6.76,6.76,0,0,0,.9.63,8.4,8.4,0,0,0,1.36.61,6.34,6.34,0,0,0,2,.29,5.88,5.88,0,0,0,2-.31,4.28,4.28,0,0,0,1.44-.86,3.5,3.5,0,0,0,.86-1.26,4.08,4.08,0,0,0,.31-1.55,2.44,2.44,0,0,0-.44-1.49,3.46,3.46,0,0,0-1.13-1,7.57,7.57,0,0,0-1.6-.7c-.59-.2-1.2-.39-1.82-.58s-1.24-.4-1.84-.63a7.26,7.26,0,0,1-1.58-.86,4.11,4.11,0,0,1-1.13-1.26,3.73,3.73,0,0,1-.44-1.88,4.22,4.22,0,0,1,.42-1.83,4.51,4.51,0,0,1,1.17-1.55,5.85,5.85,0,0,1,1.87-1.06,7.07,7.07,0,0,1,2.47-.4,8.3,8.3,0,0,1,2.89.47,6.77,6.77,0,0,1,2.33,1.44Zm28.56,6.45-5.18-12.87a13.76,13.76,0,0,1-.52-1.51c-.07.28-.15.56-.24.82s-.17.49-.26.71l-5.19,12.85Zm5.64,9.25h-1.42a.64.64,0,0,1-.42-.13.86.86,0,0,1-.25-.36l-3-7.39H967l-3,7.39a.71.71,0,0,1-.25.35.69.69,0,0,1-.43.14H962l10.42-25.47h1.82Zm4.91-14.78a10.17,10.17,0,0,1,2.86-2.48,7.16,7.16,0,0,1,3.64-.94,6.72,6.72,0,0,1,2.59.47,4.75,4.75,0,0,1,1.87,1.35,6.05,6.05,0,0,1,1.12,2.12,9.76,9.76,0,0,1,.37,2.81V1014h-1.72v-11.45a6.14,6.14,0,0,0-1.15-3.94,4.24,4.24,0,0,0-3.52-1.44,6.34,6.34,0,0,0-3.27.9,9.1,9.1,0,0,0-2.7,2.47V1014H987.9V996.09h1a.49.49,0,0,1,.53.45Zm28-.92a.46.46,0,0,1-.41.26,1,1,0,0,1-.51-.22,5.14,5.14,0,0,0-.83-.5,5.39,5.39,0,0,0-1.26-.51,6.42,6.42,0,0,0-1.83-.23,5.08,5.08,0,0,0-1.78.29,4.37,4.37,0,0,0-1.37.73,3.53,3.53,0,0,0-.87,1.1,2.92,2.92,0,0,0-.3,1.3,2.2,2.2,0,0,0,.43,1.4,3.92,3.92,0,0,0,1.12,1,8.46,8.46,0,0,0,1.6.68l1.82.58c.62.19,1.23.4,1.83.64a6.38,6.38,0,0,1,1.59.87,4.21,4.21,0,0,1,1.13,1.28,3.59,3.59,0,0,1,.43,1.83,5.79,5.79,0,0,1-.41,2.18,5,5,0,0,1-1.23,1.75,5.74,5.74,0,0,1-2,1.17,7.89,7.89,0,0,1-2.68.43,8.07,8.07,0,0,1-3.26-.6,9.11,9.11,0,0,1-2.45-1.58l.4-.61a.72.72,0,0,1,.2-.22.61.61,0,0,1,.32-.07.94.94,0,0,1,.56.29,8.4,8.4,0,0,0,.9.63,8.55,8.55,0,0,0,1.37.61,6.27,6.27,0,0,0,2,.29,5.84,5.84,0,0,0,2-.31,4.09,4.09,0,0,0,1.44-.86,3.5,3.5,0,0,0,.86-1.26,3.9,3.9,0,0,0,.31-1.55,2.44,2.44,0,0,0-.43-1.49,3.61,3.61,0,0,0-1.14-1,7.35,7.35,0,0,0-1.6-.7c-.59-.2-1.19-.39-1.82-.58s-1.23-.4-1.83-.63a7.11,7.11,0,0,1-1.59-.86,4.38,4.38,0,0,1-1.13-1.26,3.74,3.74,0,0,1-.43-1.88,4.36,4.36,0,0,1,.41-1.83,4.78,4.78,0,0,1,1.17-1.55,6,6,0,0,1,1.87-1.06,7.15,7.15,0,0,1,2.47-.4,8.36,8.36,0,0,1,2.9.47,6.82,6.82,0,0,1,2.32,1.44Zm29.12-2.21-6,17.91h-1.28c-.2,0-.34-.13-.41-.38l-4.9-14.54c-.06-.18-.11-.36-.16-.54s-.09-.36-.13-.54a7.11,7.11,0,0,1-.27,1.08l-5,14.54c-.08.25-.22.38-.44.38h-1.22l-6-17.91h1.3a.6.6,0,0,1,.41.14.66.66,0,0,1,.22.29l4.52,14.13c.07.28.14.55.2.81s.1.51.14.76l.22-.76c.07-.26.15-.53.25-.81L1033,996.4a.49.49,0,0,1,.5-.4h.7a.5.5,0,0,1,.52.4l4.76,14.25.23.79c.07.26.14.51.2.76l.14-.76c.06-.25.13-.51.22-.79l4.55-14.13a.6.6,0,0,1,.24-.3.54.54,0,0,1,.37-.13Zm16.21,7.15a7.43,7.43,0,0,0-.42-2.58,5.31,5.31,0,0,0-1.13-1.94,4.86,4.86,0,0,0-1.77-1.21,5.54,5.54,0,0,0-2.23-.43,6.69,6.69,0,0,0-2.48.43,5.58,5.58,0,0,0-1.91,1.24,6.35,6.35,0,0,0-1.28,2,8.84,8.84,0,0,0-.64,2.54Zm-11.95,1.09v.35a12.21,12.21,0,0,0,.46,3.54,7.67,7.67,0,0,0,1.33,2.58,5.55,5.55,0,0,0,2.09,1.54,6.9,6.9,0,0,0,2.74.53,8.5,8.5,0,0,0,2.34-.29,10,10,0,0,0,1.66-.67,10.69,10.69,0,0,0,1.07-.66,1.2,1.2,0,0,1,.58-.31.4.4,0,0,1,.36.18l.47.58a4.78,4.78,0,0,1-1.15,1,7.41,7.41,0,0,1-1.59.81,12.09,12.09,0,0,1-1.87.53,10.34,10.34,0,0,1-2,.19,8.57,8.57,0,0,1-3.34-.63,7.13,7.13,0,0,1-2.6-1.87,8.58,8.58,0,0,1-1.67-3,13.26,13.26,0,0,1-.58-4.06,11.15,11.15,0,0,1,.54-3.55,8.3,8.3,0,0,1,1.59-2.81,7.16,7.16,0,0,1,2.54-1.85,8.24,8.24,0,0,1,3.41-.67,7.59,7.59,0,0,1,2.81.52,6.25,6.25,0,0,1,2.25,1.53,6.93,6.93,0,0,1,1.5,2.45,9.37,9.37,0,0,1,.56,3.35,1,1,0,0,1-.11.54.43.43,0,0,1-.36.14Zm19.79-3.92a11.3,11.3,0,0,1,.94-1.94,6.35,6.35,0,0,1,1.22-1.46,5,5,0,0,1,1.55-.9,5.32,5.32,0,0,1,1.91-.33,5.78,5.78,0,0,1,1.1.11,2.75,2.75,0,0,1,1,.34l-.14,1.19a.36.36,0,0,1-.34.29,2.52,2.52,0,0,1-.67-.13,4.45,4.45,0,0,0-1.15-.12,5.1,5.1,0,0,0-1.86.32,4.53,4.53,0,0,0-1.44.94,6.22,6.22,0,0,0-1.11,1.56,16.18,16.18,0,0,0-.87,2.13V1014h-1.72V996.09h.91a.59.59,0,0,1,.44.13.76.76,0,0,1,.16.43Zm20.73-2.11a.47.47,0,0,1-.42.26,1,1,0,0,1-.5-.22,5.14,5.14,0,0,0-.83-.5,5.39,5.39,0,0,0-1.26-.51,6.42,6.42,0,0,0-1.83-.23,5.13,5.13,0,0,0-1.79.29,4.42,4.42,0,0,0-1.36.73,3.39,3.39,0,0,0-.87,1.1,2.92,2.92,0,0,0-.3,1.3,2.2,2.2,0,0,0,.43,1.4,4,4,0,0,0,1.11,1,8.86,8.86,0,0,0,1.61.68l1.81.58c.63.19,1.24.4,1.84.64a6.14,6.14,0,0,1,1.58.87,4.11,4.11,0,0,1,1.14,1.28,3.59,3.59,0,0,1,.43,1.83,5.79,5.79,0,0,1-.41,2.18,5,5,0,0,1-1.23,1.75,5.84,5.84,0,0,1-2,1.17,7.89,7.89,0,0,1-2.68.43,8.07,8.07,0,0,1-3.26-.6,9.11,9.11,0,0,1-2.45-1.58l.4-.61a.62.62,0,0,1,.2-.22.61.61,0,0,1,.32-.07.94.94,0,0,1,.56.29,8.4,8.4,0,0,0,.9.63,8.55,8.55,0,0,0,1.37.61,6.27,6.27,0,0,0,2,.29,5.84,5.84,0,0,0,2-.31,4.28,4.28,0,0,0,1.44-.86,3.5,3.5,0,0,0,.86-1.26,3.9,3.9,0,0,0,.31-1.55,2.5,2.5,0,0,0-.43-1.49,3.61,3.61,0,0,0-1.14-1,7.57,7.57,0,0,0-1.6-.7c-.59-.2-1.19-.39-1.82-.58s-1.23-.4-1.83-.63a7.11,7.11,0,0,1-1.59-.86,4.24,4.24,0,0,1-1.13-1.26,3.74,3.74,0,0,1-.43-1.88,4.21,4.21,0,0,1,.41-1.83,4.78,4.78,0,0,1,1.17-1.55,6,6,0,0,1,1.87-1.06,7.11,7.11,0,0,1,2.47-.4,8.36,8.36,0,0,1,2.9.47,6.82,6.82,0,0,1,2.32,1.44Zm12.84-12.4H1100v11.7h-1.39V985.9h-4.34v-1.17h10.06Zm15.5-1.17V997.6h-1.21V987.14l0-.36-4.7,8.48a.59.59,0,0,1-.52.31h-.2a.53.53,0,0,1-.52-.31l-4.81-8.51c0,.13,0,.26,0,.38s0,.23,0,.34V997.6h-1.21V984.73h1a.71.71,0,0,1,.29,0,.37.37,0,0,1,.2.21l4.78,8.37a2.59,2.59,0,0,1,.17.38c.06.12.11.25.16.38.06-.13.11-.26.16-.38l.18-.38,4.66-8.37a.37.37,0,0,1,.2-.21.83.83,0,0,1,.31,0Z" transform="translate(-780 -867)"/><circle class="cls-3" cx="219.62" cy="132.62" r="49.62"/><path class="cls-1" d="M1027.24,999.87l-41.06,23.71V976.16Z" transform="translate(-780 -867)"/><path class="cls-2" d="M985,1081.73h-1.07v8.76h5.41v-1.1H985Z" transform="translate(-780 -867)"/><path class="cls-2" d="M1030.82,1084.86l-.72-.63-2.09,2.45-2-2.45-.77.63,2.2,2.55-2.15,2.51,0,0,.77.63,2-2.46,2.09,2.46.72-.63-2.15-2.56Z" transform="translate(-780 -867)"/><path class="cls-2" d="M1016.63,1088l-5.87-6.26h-.2v8.76h1.07v-6.31l5.87,6.31h.2v-8.76h-1.07Z" transform="translate(-780 -867)"/><path class="cls-2" d="M1033,1084.33h-1v6.11h1Z" transform="translate(-780 -867)"/><path class="cls-2" d="M1033,1081.73h-1.12v1H1033Z" transform="translate(-780 -867)"/><path class="cls-2" d="M1022,1084.23a3.13,3.13,0,0,0,0,6.26,3.23,3.23,0,0,0,2.4-1l-.72-.63a2.48,2.48,0,0,1-1.68.68,2,2,0,0,1-2-1.93h4.85C1024.9,1085.48,1023.67,1084.23,1022,1084.23Zm-1.89,2.5a1.86,1.86,0,0,1,1.84-1.51,1.74,1.74,0,0,1,1.83,1.51Z" transform="translate(-780 -867)"/><path class="cls-2" d="M1036.73,1087l-.51-.2c-.71-.27-.91-.58-.91-.94s.4-.68.86-.68a1.21,1.21,0,0,1,1,.47l.72-.63a2.17,2.17,0,0,0-1.69-.78,1.77,1.77,0,0,0-1.93,1.62,1.93,1.93,0,0,0,1.48,1.82l.5.21c.72.26,1.08.52,1.08,1s-.51.79-1.13.79a1.86,1.86,0,0,1-1.48-.79l-.71.68a2.79,2.79,0,0,0,2.19,1c1.38,0,2.2-.79,2.2-1.78S1037.81,1087.36,1036.73,1087Z" transform="translate(-780 -867)"/><path class="cls-2" d="M1001.63,1084.86l-.77-.63-2,2.45-2.09-2.45-.77.63,2.2,2.55-2.15,2.51,0,0,.77.63,2.09-2.46,2,2.46.77-.63-2.2-2.56,2.15-2.55Z" transform="translate(-780 -867)"/><path class="cls-2" d="M1003.72,1084.33h-1v6.11h1Z" transform="translate(-780 -867)"/><path class="cls-2" d="M1003.77,1081.73h-1.12v1h1.12Z" transform="translate(-780 -867)"/><path class="cls-2" d="M992.75,1084.23a3.13,3.13,0,0,0,0,6.26,3.23,3.23,0,0,0,2.4-1l-.71-.63a2.51,2.51,0,0,1-1.69.68,2,2,0,0,1-2-1.93h4.85C995.66,1085.48,994.43,1084.23,992.75,1084.23Zm-1.89,2.5a1.86,1.86,0,0,1,1.84-1.51,1.75,1.75,0,0,1,1.84,1.51Z" transform="translate(-780 -867)"/><path class="cls-2" d="M1007.5,1087l-.51-.2c-.72-.27-.92-.58-.92-.94a.77.77,0,0,1,.86-.68,1.24,1.24,0,0,1,1,.47l.71-.63a2.16,2.16,0,0,0-1.68-.78,1.77,1.77,0,0,0-1.94,1.62,1.94,1.94,0,0,0,1.48,1.82l.46.21c.71.26,1.07.52,1.07,1s-.51.79-1.13.79a1.83,1.83,0,0,1-1.47-.79l-.72.68a2.79,2.79,0,0,0,2.19,1c1.38,0,2.2-.79,2.2-1.78S1008.57,1087.36,1007.5,1087Z" transform="translate(-780 -867)"/><path class="cls-2" d="M1039.18,1082.72a.83.83,0,0,0,0,1.66.83.83,0,0,0,0-1.66Zm0,1.51a.68.68,0,0,1-.66-.68.67.67,0,1,1,1.33,0A.65.65,0,0,1,1039.18,1084.23Z" transform="translate(-780 -867)"/><path class="cls-2" d="M1039.54,1083.29c0-.16-.1-.26-.31-.26h-.3v.94h.15v-.37h.15l.21.37h.15l-.2-.42C1039.49,1083.55,1039.54,1083.45,1039.54,1083.29Zm-.31.16h-.15v-.26h.15c.16,0,.21,0,.21.1S1039.34,1083.45,1039.23,1083.45Z" transform="translate(-780 -867)"/><path class="cls-2" d="M978.72,1080.11a.83.83,0,0,0,0,1.66.81.81,0,0,0,.81-.83A.78.78,0,0,0,978.72,1080.11Zm0,1.46a.68.68,0,0,1,0-1.36.68.68,0,0,1,.66.68A.65.65,0,0,1,978.72,1081.57Z" transform="translate(-780 -867)"/><path class="cls-2" d="M979.07,1080.68c0-.15-.1-.26-.3-.26h-.31v.94h.16V1081h.15l.2.36h.16l-.26-.36C979,1080.89,979.07,1080.84,979.07,1080.68Zm-.35.16h-.16v-.26h.16c.15,0,.2.05.2.1S978.87,1080.84,978.72,1080.84Z" transform="translate(-780 -867)"/><path class="cls-2" d="M963.36,1085.22a9.41,9.41,0,0,1,4.34-4.38,6.93,6.93,0,0,1,.66-.31v-.06c-6.58,1.15-9.39,9.45-5,13h0C962.75,1092.58,961.27,1089.5,963.36,1085.22Z" transform="translate(-780 -867)"/><path class="cls-2" d="M964.84,1090.75a11.34,11.34,0,0,1,0-3.29,10.58,10.58,0,0,1,2.81-5.58c.25-.26.56-.52.86-.78v0a9.39,9.39,0,0,0-5.15,9c.15,1.62.76,4.65,3.82,5.22,0,0,.06,0,0,0C966,1094.4,965.09,1092.32,964.84,1090.75Z" transform="translate(-780 -867)"/><path class="cls-2" d="M960.6,1082.72a8.57,8.57,0,0,1,7.76-3.34s0-.05,0-.05a7.31,7.31,0,0,0-6.28,1,6.35,6.35,0,0,0-1.48,2.35Z" transform="translate(-780 -867)"/><path class="cls-2" d="M977.9,1085.48a9.18,9.18,0,0,0-9.8-8.45,9,9,0,0,0-5,2.09v.05a7.44,7.44,0,0,1,5.21-.26,11.39,11.39,0,0,1,1.38.57,3,3,0,0,1,.66.42,9.1,9.1,0,0,1,2.5-.73c.05,0,.1,0,.15.1a.1.1,0,0,1-.1.16c-.46.11-.92.26-1.38.42v.05a7.17,7.17,0,0,1,1.84.21.11.11,0,0,1,.1.1c0,.11,0,.16-.15.16a8.66,8.66,0,0,0-1.63-.1v0c.25.1.51.16.76.26a11.07,11.07,0,0,1,1.33.68s0,0,0,.1a.13.13,0,0,1-.2.11,7.24,7.24,0,0,0-1.28-.58,2.13,2.13,0,0,1-.56-.21s-.05,0,0,.06a10.13,10.13,0,0,1,.92.67,11.26,11.26,0,0,1,1,1,.09.09,0,0,1,0,.15.13.13,0,0,1-.21.06,8,8,0,0,0-1-1,3.13,3.13,0,0,0-.71-.47s-.05,0,0,0l.2.21a8.75,8.75,0,0,1,.87,1.2,9.39,9.39,0,0,1,.66,1.35v.16s-.2,0-.2,0a4.1,4.1,0,0,0-.61-1.36,9.91,9.91,0,0,0-.87-1.15,6.79,6.79,0,0,0-1.07-1,1.63,1.63,0,0,0-.36-.26c-7.4,4.28-4.8,15.44.56,14.82A9.14,9.14,0,0,0,977.9,1085.48Z" transform="translate(-780 -867)"/><path class="cls-2" d="M961.73,1084.12a9.35,9.35,0,0,1,6.53-4.17v0a9.68,9.68,0,0,0-2.4.16,9.27,9.27,0,0,0-2.55,1.14,7.8,7.8,0,0,0-2.1,2,6.26,6.26,0,0,0-1,5.27c0,.2.2.62.3.93h0A7.7,7.7,0,0,1,961.73,1084.12Z" transform="translate(-780 -867)"/></svg>