<svg id="svg2888" xmlns="http://www.w3.org/2000/svg" viewBox="0 0 256.56 42.45"><defs><style>.cls-1{fill:#fff;}</style></defs><title>relxGroupLogo</title><g id="g3003"><path id="path2693" class="cls-1" d="M18,19.59c9,0,19.84-2.05,19.84-10.43,0-5.94-6.26-8.16-12-8.16C17.12,1,1,5.71,1,22.42c0,8.39,6.6,13.23,17.07,13.23,11.07,0,19.12-7,21.58-16.32-6.5,10.85-14.77,14.22-21.51,14.22-8.37,0-11.57-6-11.57-11.16C6.57,7.64,18.41,2.68,25.88,2.68c5,0,8,3.13,8,6.56,0,9.47-14.11,9.2-20.55,9.2H10.23L8.88,19.8a37,37,0,0,1,11.45,3.35c9.21,4.5,17.87,16.37,29.33,16.37,4.16,0,5.25-1.23,6-2.3-5.62,3.46-15-2.54-20.1-7.19C31.42,26.22,27.73,21.88,18,19.59" transform="translate(-1 -1)"/><path id="path2697" class="cls-1" d="M73.78,14.86c0-2.56-1.83-4.22-4.52-4.22H63a.23.23,0,0,0-.26.26v7.88A.23.23,0,0,0,63,19h6.31c2.69,0,4.52-1.65,4.52-4.18m.57,20.76a.6.6,0,0,1-.65-.44L68,23.65H63a.23.23,0,0,0-.26.26V35.18a.41.41,0,0,1-.44.44H58a.41.41,0,0,1-.44-.44V6.47A.41.41,0,0,1,58,6H69.43c5.44,0,9.44,3.61,9.44,8.83A8.42,8.42,0,0,1,73.26,23l6.22,12a.35.35,0,0,1-.3.57Z" transform="translate(-1 -1)"/><path id="path2701" class="cls-1" d="M84,6.47A.41.41,0,0,1,84.46,6h18a.41.41,0,0,1,.43.44v3.74a.4.4,0,0,1-.43.43h-13a.23.23,0,0,0-.26.26v7.23a.23.23,0,0,0,.26.26H99.88a.4.4,0,0,1,.43.43v3.75a.4.4,0,0,1-.43.43H89.42a.23.23,0,0,0-.26.26v7.49a.23.23,0,0,0,.26.26h13a.4.4,0,0,1,.43.43v3.74a.41.41,0,0,1-.43.44h-18a.41.41,0,0,1-.43-.44Z" transform="translate(-1 -1)"/><path id="path2705" class="cls-1" d="M107.65,6.47a.41.41,0,0,1,.44-.44h4.26a.41.41,0,0,1,.44.44V30.75a.23.23,0,0,0,.26.26h12.09a.41.41,0,0,1,.44.43v3.74a.41.41,0,0,1-.44.44h-17a.41.41,0,0,1-.44-.44Z" transform="translate(-1 -1)"/><path id="path2709" class="cls-1" d="M161.66,20.82c0-5.13.35-7.09.83-8.57,1.43-4.39,4.83-6.66,9.66-6.66S180,8,181.41,11.08a.39.39,0,0,1-.17.56l-1.39.7a.44.44,0,0,1-.57-.17A7.49,7.49,0,0,0,172.1,8c-3.65,0-6.13,1.74-7.22,5-.39,1.13-.7,3-.7,7.87s.31,6.75.7,7.88c1.09,3.27,3.57,5,7.22,5s6.14-1.7,7.23-4.92a17.55,17.55,0,0,0,.69-5.66.23.23,0,0,0-.26-.26h-6.7a.41.41,0,0,1-.43-.44V21a.41.41,0,0,1,.43-.44h9a.41.41,0,0,1,.43.44v1.78a22.64,22.64,0,0,1-.78,6.57c-1.39,4.4-4.83,6.7-9.57,6.7s-8.23-2.26-9.66-6.65c-.48-1.48-.83-3.44-.83-8.58" transform="translate(-1 -1)"/><path id="path2713" class="cls-1" d="M187.16,35.62a.41.41,0,0,1-.44-.43V15.3a.42.42,0,0,1,.44-.44h1.48a.41.41,0,0,1,.43.44V18h.05a5.56,5.56,0,0,1,5.57-3.52,6.44,6.44,0,0,1,4.17,1.43.35.35,0,0,1,.09.57l-.87,1.22a.47.47,0,0,1-.65.09,6,6,0,0,0-3.31-1c-3.66,0-5.05,3.18-5.05,7V35.19a.4.4,0,0,1-.43.43Z" transform="translate(-1 -1)"/><path id="path2717" class="cls-1" d="M214.31,29.92a14.18,14.18,0,0,0,.56-4.7,14.11,14.11,0,0,0-.56-4.66,5.85,5.85,0,0,0-11,0,14.06,14.06,0,0,0-.57,4.66,14.13,14.13,0,0,0,.57,4.7,5.85,5.85,0,0,0,11,0M201,30.66a17,17,0,0,1-.7-5.44,17,17,0,0,1,.7-5.4,8.29,8.29,0,0,1,15.53,0,17,17,0,0,1,.7,5.4,17,17,0,0,1-.7,5.44c-1.13,3.44-4,5.39-7.79,5.39A7.65,7.65,0,0,1,201,30.66" transform="translate(-1 -1)"/><path id="path2721" class="cls-1" d="M234.63,35.62a.41.41,0,0,1-.44-.43V32.75h0a6.46,6.46,0,0,1-6.05,3.3c-4.61,0-7.18-2.87-7.18-7.87V15.3a.42.42,0,0,1,.44-.44h1.48a.41.41,0,0,1,.43.44V27.57c0,4.18,1.74,6.22,5.35,6.22A5.4,5.4,0,0,0,234.19,28V15.3a.42.42,0,0,1,.44-.44h1.48a.41.41,0,0,1,.43.44V35.19a.4.4,0,0,1-.43.43Z" transform="translate(-1 -1)"/><path id="path2725" class="cls-1" d="M254.6,30.14a16.21,16.21,0,0,0,.56-4.88,16.22,16.22,0,0,0-.56-4.91,5.68,5.68,0,0,0-10.62,0,15.47,15.47,0,0,0-.56,4.91,15.22,15.22,0,0,0,.56,4.88,5.69,5.69,0,0,0,10.62,0M241.5,43.45a.4.4,0,0,1-.43-.43V15.3a.41.41,0,0,1,.43-.44H243a.42.42,0,0,1,.44.44v2.52h0c1-2,2.87-3.39,6.31-3.39,3.65,0,6,1.65,7,5a19.55,19.55,0,0,1,.74,5.87,19.4,19.4,0,0,1-.74,5.83c-1.09,3.31-3.4,5-7,5-3.44,0-5.31-1.43-6.31-3.39h0V43a.41.41,0,0,1-.44.43Z" transform="translate(-1 -1)"/><path id="path2729" class="cls-1" d="M146.86,35.66a.73.73,0,0,1-.7-.44l-6-10h-.09l-6,10a.72.72,0,0,1-.7.44h-4.7c-.3,0-.43-.27-.26-.57l8.84-14.75L129.11,6.63c-.18-.3-.05-.56.26-.56h4.7a.69.69,0,0,1,.69.43l5.35,9h.09l5.35-9a.72.72,0,0,1,.7-.43H151c.3,0,.44.26.26.56L143,20.34l8.83,14.75c.18.3,0,.57-.26.57Z" transform="translate(-1 -1)"/></g></svg>